<svg id="Layer_35" enable-background="new 0 0 64 64" height="512" viewBox="0 0 64 64" width="512" xmlns="http://www.w3.org/2000/svg" xmlns:xlink="http://www.w3.org/1999/xlink"><linearGradient id="SVGID_1_" gradientUnits="userSpaceOnUse" x1="32" x2="32" y1="63" y2="1"><stop offset="0" stop-color="#9f2fff"/><stop offset="1" stop-color="#0bb1d3"/></linearGradient><path d="m37 23c0-.552.448-1 1-1s1 .448 1 1-.448 1-1 1-1-.448-1-1zm-11-1c-.552 0-1 .448-1 1s.448 1 1 1 1-.448 1-1-.448-1-1-1zm10 10h-2c0 1.103-.897 2-2 2s-2-.897-2-2h-2c0 2.206 1.794 4 4 4s4-1.794 4-4zm23 30v1h-10-34-10v-1c0-6.482 3.877-12.257 9.877-14.712l10.259-4.197c1.132-.463 1.864-1.553 1.864-2.777v-.718c-3.077-2.126-5.427-5.126-6.759-8.596h-.241c-2.757 0-5-2.243-5-5v-7c-1.103 0-2-.897-2-2v-2c0-1.103.897-2 2-2h.763c2.18-7.1 8.739-12 16.237-12s14.057 4.9 16.237 12h.763c1.103 0 2 .897 2 2v2c0 1.103-.897 2-2 2v7c0 2.757-2.243 5-5 5h-.241c-1.332 3.471-3.682 6.47-6.759 8.596v.718c0 1.224.732 2.313 1.864 2.776l10.259 4.197c6 2.456 9.877 8.231 9.877 14.713zm-42-7h4v-8.056l-4 1.636zm6 0h7.649l-7.649-8.413zm18 0v-8.413l-7.649 8.413zm2 0h4v-6.419l-4-1.636zm4-29c0-1.302-.839-2.402-2-2.816v1.167c0 1.582-.207 3.125-.586 4.607 1.457-.204 2.586-1.446 2.586-2.958zm0-7h-2v2.101c.743.152 1.416.482 2 .924zm-15-16c-.917 0-1.816.089-2.693.248l1.167 4.566c.178.699.805 1.186 1.526 1.186s1.348-.487 1.526-1.185l1.167-4.566c-.877-.16-1.776-.249-2.693-.249zm-14.146 10h4.146v-2h2v2h2v-2h2v2h8v-2h2v2h2v-2h2v2h4.146c-1.57-4.456-5.133-7.839-9.514-9.26l-1.168 4.57c-.404 1.584-1.829 2.69-3.464 2.69s-3.06-1.106-3.464-2.69l-1.168-4.57c-4.382 1.421-7.945 4.804-9.514 9.26zm-2.854 4h34.001l-.001-2h-34zm2 2v3.026c.584-.442 1.257-.773 2-.924v-2.102zm2.586 9.958c-.379-1.482-.586-3.025-.586-4.607v-1.167c-1.161.414-2 1.514-2 2.816 0 1.512 1.129 2.754 2.586 2.958zm12.414 10.984c6.594-2.345 11-8.568 11-15.591v-5.351h-22v5.351c0 7.024 4.406 13.247 11 15.591zm-3.036.854c-.102 1.066-.53 2.051-1.217 2.828.902 1.461 2.505 2.376 4.253 2.376s3.351-.915 4.253-2.376c-.688-.777-1.115-1.762-1.217-2.828-.864.45-1.772.837-2.719 1.152l-.317.106-.316-.105c-.947-.316-1.856-.703-2.72-1.153zm-4.299 4.649 7.335 8.069 7.335-8.069-1.228-.503c-.086-.035-.164-.084-.247-.123-1.279 1.96-3.472 3.181-5.86 3.181s-4.581-1.221-5.86-3.181c-.083.039-.16.088-.246.123zm-9.665 15.555v-11.575c-4.579 2.142-7.609 6.55-7.965 11.575zm32 0v-4h-30v4zm9.965 0c-.356-5.025-3.386-9.433-7.965-11.575v11.575z" fill="url(#SVGID_1_)"/></svg>